# xmcd CD database file
#
# Track frame offsets:
#	150
#	4560
#	26837
#	48875
#	63435
#	84110
#	104850
#	122215
#	139350
#	153812
#	174910
#
# Disc length: 2609 seconds
#
# Revision: 2
# Processed by: cddbd v1.5.2PL0 Copyright (c) Steve Scherf et al.
# Submitted via: CDex 1.70beta2
#
DISCID=870a2f0b
DTITLE=ともさかりえ - un
DYEAR=1997
DGENRE=J ポップ
TTITLE0=カフェが終わって - Tu l'as embrasse_ -
TTITLE1=エスカレーション
TTITLE2=２人
TTITLE3=ジェラシー
TTITLE4=そんなの気にしない
TTITLE5=くしゃみ - Album Version -
TTITLE6=私がついてるじゃない？
TTITLE7=夢のこと
TTITLE8=カフェが終わって - Je l'ai embrasse. -
TTITLE9=恋をしたら海へ行こう - Remix version -
TTITLE10=泣いちゃいそうよ
EXTD=YEAR: 1997
EXTT0=
EXTT1=
EXTT2=
EXTT3=
EXTT4=
EXTT5=
EXTT6=
EXTT7=
EXTT8=
EXTT9=
EXTT10=
PLAYORDER=
